<?xml version="1.0" encoding="UTF-8"?>
<svg id="Capa_2" data-name="Capa 2" xmlns="http://www.w3.org/2000/svg" viewBox="0 0 2344.19 516.66">
  <defs>
    <style>
      .cls-1 {
        fill: #fff;
      }
    </style>
  </defs>
  <g id="Capa_1-2" data-name="Capa 1">
    <g>
      <g>
        <path class="cls-1" d="M1084.87,312.37c-3.86,49.77-40.01,87.14-86.11,101.9l-31.76,7.73c-30.25,3.83-59.23,3.76-87.01-.01l-25.99-6.49c-52.68-14.53-91.86-60.94-97-115.5h79c5.28,33.22,29.1,54.97,61.18,62.33,18.25,4.19,43.68,5.46,65.26-.42,19.87-5.41,36.48-16.88,41.26-37.71,9.49-41.4-16.64-61.41-49.7-73.63-25.11-9.28-54.21-14.06-74.76-20.31-64.28-19.54-112.73-49.15-107.28-124.8,4.86-67.42,66.95-101.89,128.63-104.41l2.41-1.05h32l26.23,3.27c24.07,5.71,48.67,13.04,68.24,28.76,24.85,19.96,43.26,52.81,44.53,84.97h-78c-4.63-31.14-26.72-51.74-56.45-56.95-2.63-.47-5.33-.81-8.07-1.03-31.31-2.49-71.47,2.37-79.04,38.93-11.07,53.44,51.79,64.78,95.64,74.6,6.99,1.57,13.49,3.09,19.14,4.74,68.98,20.16,123.95,54.02,117.65,135.08Z"/>
        <path class="cls-1" d="M387.05,196.45C382.41,81.97,303.26,5.62,188.55,5.95L0,6.01l12.02,5.47c5.82,2.06,16.98,15.39,16.98,21.02v386.5c60.13-.59,120.44,1.24,180.49-1,117.56-11.25,182.15-108.16,177.56-221.55ZM300.51,260.02c-15.01,63.11-53.59,93.47-117.97,96.02-19.64.78-53.45,2.2-72.09.01-1.46-.17-2.57-.12-3.45-1.55V96.5c-1.4-9.01-11.08-17.86-18.3-22.69l-11.7-4.8,119.49,1c96.1,7.32,123.28,109.04,104.02,190.01Z"/>
        <path class="cls-1" d="M733,70h-240l10.68,3.82c8.5,3.88,19.32,16.01,19.32,25.68v72.5h201v64h-229l11.94,5.56c6.96,3.78,16.06,16.09,16.06,23.94v89.5h210v64h-286V32.5c0-3.42-7.75-14.59-10.99-17.01l-18.01-9.49h315v64Z"/>
        <path class="cls-1" d="M1348.5,6h-132.5l11.33,5.18c7.14,4.84,13.19,10.98,15.46,19.56l-133.79,388.26h75.5c5.34-12.59,9.47-26.11,13.77-39.23,5.09-15.57,12.24-34.49,16.01-49.99,3.58-14.73-.45-23.29-12.94-31.62l-7.34-3.16h181l42.5,124h80.5L1348.5,6ZM1246,234l50.99-166.32,2.51-.69,54.5,167.01h-108Z"/>
      </g>
      <g>
        <path class="cls-1" d="M1647.58,207.33v55.75c-5.03-.84-10.06-1.26-15.08-1.26-33.54,0-49.88,16.77-49.88,49.88v107.3h-54.49v-206.22h51.13v24.73c18.03-27.66,38.98-30.18,61.2-30.18h7.12Z"/>
        <path class="cls-1" d="M1741.89,381.28c-26.82,0-44.43-20.12-46.11-51.14h142.09c0-81.73-33.53-122.81-96.82-122.81s-99.75,41.08-99.75,104.79c0,74.61,34.37,112.33,103.11,112.33,44.01,0,77.96-23.89,90.53-66.22h-56.16c-3.78,14.25-19.29,23.05-36.89,23.05ZM1739.38,250.51c21.37,0,41.49,14.67,42.33,45.26h-84.25c2.1-28.5,20.12-45.26,41.92-45.26Z"/>
        <path class="cls-1" d="M1996.3,212.78v25.57c-12.99-20.96-31.85-31.02-57.84-31.02-49.88,0-90.11,43.18-90.11,107.3,0,54.07,23.47,106.05,91.37,106.05,26.82,0,49.04-10.9,56.58-29.34v33.95c0,27.24-23.05,44.43-51.97,44.43-27.24,0-45.27-14.67-45.27-39.4h-50.71c0,53.23,42.33,86.34,99.75,86.34s102.69-33.53,102.69-95.56v-208.32h-54.49ZM1951.46,377.93c-26.83,0-46.53-23.48-46.53-60.36,0-42.34,15.93-62.87,46.53-62.87s46.52,21.37,46.52,66.22c0,34.79-20.12,57.01-46.52,57.01Z"/>
        <path class="cls-1" d="M2214.25,212.78v25.57c-12.99-20.96-31.85-31.02-57.84-31.02-49.87,0-90.11,43.18-90.11,107.3,0,54.07,23.47,106.05,91.37,106.05,26.83,0,49.04-10.9,56.58-29.34v33.95c0,27.24-23.05,44.43-51.97,44.43-27.24,0-45.27-14.67-45.27-39.4h-50.71c0,53.23,42.33,86.34,99.75,86.34s102.69-33.53,102.69-95.56v-208.32h-54.49ZM2169.41,377.93c-26.83,0-46.53-23.48-46.53-60.36,0-42.34,15.93-62.87,46.53-62.87s46.52,21.37,46.52,66.22c0,34.79-20.12,57.01-46.52,57.01Z"/>
        <rect class="cls-1" x="2289.7" y="137.34" width="54.49" height="50.71"/>
        <rect class="cls-1" x="2289.7" y="212.78" width="54.49" height="206.22"/>
      </g>
    </g>
  </g>
</svg>